<?xml version="1.0" standalone="no"?>
<!DOCTYPE svg PUBLIC "-//W3C//DTD SVG 20010904//EN"
 "http://www.w3.org/TR/2001/REC-SVG-20010904/DTD/svg10.dtd">
<svg version="1.0" xmlns="http://www.w3.org/2000/svg"
 width="1536.000000pt" height="1024.000000pt" viewBox="0 0 1536.000000 1024.000000"
 preserveAspectRatio="xMidYMid meet">

<g transform="translate(0.000000,1024.000000) scale(0.100000,-0.100000)"
fill="#000000" stroke="none">
<path d="M3595 7405 c-360 -45 -652 -190 -910 -449 -160 -161 -272 -327 -343
-511 l-20 -50 -143 -6 c-281 -12 -468 -93 -652 -283 -171 -176 -244 -351 -254
-607 l-5 -135 -44 -13 c-65 -19 -151 -63 -229 -116 -71 -48 -225 -191 -225
-209 0 -6 33 21 72 59 40 39 60 56 45 39 -15 -17 -24 -34 -20 -39 5 -4 3 -6
-3 -2 -5 3 -27 -12 -48 -33 -21 -22 -42 -38 -48 -37 -14 3 -81 -95 -123 -181
-119 -241 -115 -565 9 -828 105 -222 274 -399 479 -501 94 -48 213 -87 307
-103 45 -8 663 -10 2055 -8 1861 3 1994 5 2055 21 273 74 497 231 666 467 154
213 224 436 224 710 0 342 -120 630 -365 874 -177 177 -359 282 -566 327 l-46
10 -6 92 c-21 298 -139 614 -325 863 -98 132 -278 307 -398 387 -233 155 -483
241 -769 266 -148 13 -241 12 -370 -4z m358 -12 c-7 -2 -19 -2 -25 0 -7 3 -2
5 12 5 14 0 19 -2 13 -5z m-348 -12 c3 -6 -6 -8 -21 -5 -15 3 -23 1 -20 -5 3
-5 -2 -8 -11 -6 -10 2 -22 4 -28 5 -16 2 28 19 52 19 12 1 24 -3 28 -8z m433
2 c-10 -2 -26 -2 -35 0 -10 3 -2 5 17 5 19 0 27 -2 18 -5z m347 -83 c3 -6 -1
-7 -9 -4 -18 7 -21 14 -7 14 6 0 13 -4 16 -10z m46 -18 c-7 -2 -18 1 -23 6 -8
8 -4 9 13 5 13 -4 18 -8 10 -11z m-1333 -69 c-6 -7 -12 -13 -13 -13 -2 0 -5 6
-8 13 -3 7 3 13 14 13 13 0 15 -3 7 -13z m-34 -1 c2 -4 -4 -8 -14 -8 -10 0
-16 4 -14 8 3 4 9 8 14 8 5 0 11 -4 14 -8z m1643 -78 c-3 -3 -12 -4 -19 -1 -8
3 -5 6 6 6 11 1 17 -2 13 -5z m123 -79 c7 -9 8 -15 2 -15 -5 0 -12 7 -16 15
-3 8 -4 15 -2 15 2 0 9 -7 16 -15z m170 -160 c11 -13 10 -14 -4 -9 -9 3 -16
10 -16 15 0 13 6 11 20 -6z m-2579 -328 c-10 -9 -11 -8 -5 6 3 10 9 15 12 12
3 -3 0 -11 -7 -18z m-436 -226 c3 -5 0 -13 -6 -17 -8 -4 -9 -3 -5 4 4 7 1 12
-9 12 -9 0 -14 -4 -11 -9 4 -5 -4 -7 -16 -3 -21 5 -21 6 -2 13 27 11 42 11 49
0z m1092 -118 c45 -21 1003 -973 1027 -1020 23 -46 20 -84 -11 -130 -16 -21
-107 -115 -203 -208 -96 -93 -269 -263 -385 -376 -315 -311 -416 -408 -456
-435 -69 -47 -185 -41 -249 13 -65 54 -89 155 -55 226 9 18 200 214 425 437
l409 405 -389 395 c-214 217 -397 411 -407 430 -49 98 14 233 129 277 41 16
116 9 165 -14z m-1437 -37 c0 -2 -8 -10 -17 -17 -16 -13 -17 -12 -4 4 13 16
21 21 21 13z m3760 -31 c0 -8 -2 -15 -4 -15 -2 0 -6 7 -10 15 -3 8 -1 15 4 15
6 0 10 -7 10 -15z m-3837 -38 c-15 -19 -30 -32 -32 -30 -5 3 49 63 57 63 2 0
-9 -15 -25 -33z m-240 -417 c-3 -12 -8 -19 -11 -16 -5 6 5 36 12 36 2 0 2 -9
-1 -20z m4402 0 c3 -6 -1 -7 -9 -4 -18 7 -21 14 -7 14 6 0 13 -4 16 -10z
m-4418 -62 c-3 -8 -6 -5 -6 6 -1 11 2 17 5 13 3 -3 4 -12 1 -19z m-10 -65 c-3
-10 -5 -4 -5 12 0 17 2 24 5 18 2 -7 2 -21 0 -30z m4674 -30 c13 -16 12 -17
-3 -4 -10 7 -18 15 -18 17 0 8 8 3 21 -13z m-4684 -75 c-2 -13 -4 -5 -4 17 -1
22 1 32 4 23 2 -10 2 -28 0 -40z m4778 -7 c3 -5 2 -12 -3 -15 -5 -3 -9 1 -9 9
0 17 3 19 12 6z m353 -717 c0 -15 -4 -22 -10 -16 -5 5 -6 16 -2 25 9 23 12 21
12 -9z m-5821 -136 c-3 -8 -6 -5 -6 6 -1 11 2 17 5 13 3 -3 4 -12 1 -19z
m5830 -80 c-3 -7 -5 -2 -5 12 0 14 2 19 5 13 2 -7 2 -19 0 -25z m-10 -110 c-3
-7 -5 -2 -5 12 0 14 2 19 5 13 2 -7 2 -19 0 -25z m-2354 -35 c-13 -2 -33 -2
-45 0 -13 2 -3 4 22 4 25 0 35 -2 23 -4z m140 0 c-7 -2 -21 -2 -30 0 -10 3 -4
5 12 5 17 0 24 -2 18 -5z m244 1 c-3 -3 -12 -4 -19 -1 -8 3 -5 6 6 6 11 1 17
-2 13 -5z m91 -1 c-16 -2 -40 -2 -55 0 -16 2 -3 4 27 4 30 0 43 -2 28 -4z
m273 -46 c40 -26 79 -98 78 -142 -1 -47 -48 -115 -98 -142 -44 -23 -44 -23
-463 -23 -398 0 -421 1 -458 20 -21 11 -42 24 -45 30 -4 6 -10 8 -15 5 -5 -3
-12 0 -16 6 -5 8 -3 9 6 4 10 -6 11 -4 5 11 -4 10 -12 38 -18 61 -14 60 12
125 66 164 l40 29 442 0 442 0 34 -23z m-4214 -89 c-3 -8 -6 -5 -6 6 -1 11 2
17 5 13 3 -3 4 -12 1 -19z m2400 -244 c-3 -3 -12 -4 -19 -1 -8 3 -5 6 6 6 11
1 17 -2 13 -5z m-2130 -261 c-4 10 -3 16 2 12 6 -3 9 -14 8 -25 -1 -18 -3 -18
-29 7 -36 34 -37 44 -1 12 21 -19 25 -20 20 -6z m636 -330 c-7 -2 -21 -2 -30
0 -10 3 -4 5 12 5 17 0 24 -2 18 -5z m3930 0 c-7 -2 -21 -2 -30 0 -10 3 -4 5
12 5 17 0 24 -2 18 -5z m-3790 -10 c-7 -2 -19 -2 -25 0 -7 3 -2 5 12 5 14 0
19 -2 13 -5z m160 0 c-7 -2 -21 -2 -30 0 -10 3 -4 5 12 5 17 0 24 -2 18 -5z
m90 0 c-13 -2 -33 -2 -45 0 -13 2 -3 4 22 4 25 0 35 -2 23 -4z m145 0 c-21 -2
-57 -2 -80 0 -24 2 -7 4 37 4 44 0 63 -2 43 -4z m135 0 c-18 -2 -48 -2 -65 0
-18 2 -4 4 32 4 36 0 50 -2 33 -4z m115 0 c-10 -2 -26 -2 -35 0 -10 3 -2 5 17
5 19 0 27 -2 18 -5z m90 0 c-10 -2 -28 -2 -40 0 -13 2 -5 4 17 4 22 1 32 -1
23 -4z m355 0 c-62 -2 -164 -2 -225 0 -62 1 -12 3 112 3 124 0 174 -2 113 -3z
m260 0 c-7 -2 -19 -2 -25 0 -7 3 -2 5 12 5 14 0 19 -2 13 -5z m90 0 c-7 -2
-21 -2 -30 0 -10 3 -4 5 12 5 17 0 24 -2 18 -5z m155 0 c-21 -2 -57 -2 -80 0
-24 2 -7 4 37 4 44 0 63 -2 43 -4z m170 0 c-10 -2 -26 -2 -35 0 -10 3 -2 5 17
5 19 0 27 -2 18 -5z m80 0 c-10 -2 -28 -2 -40 0 -13 2 -5 4 17 4 22 1 32 -1
23 -4z m80 0 c-10 -2 -26 -2 -35 0 -10 3 -2 5 17 5 19 0 27 -2 18 -5z m70 0
c-10 -2 -26 -2 -35 0 -10 3 -2 5 17 5 19 0 27 -2 18 -5z m190 0 c-26 -2 -71
-2 -100 0 -29 2 -8 3 47 3 55 0 79 -1 53 -3z m255 0 c-29 -2 -78 -2 -110 0
-32 2 -8 3 52 3 61 0 87 -1 58 -3z m125 0 c-10 -2 -26 -2 -35 0 -10 3 -2 5 17
5 19 0 27 -2 18 -5z m65 0 c-7 -2 -19 -2 -25 0 -7 3 -2 5 12 5 14 0 19 -2 13
-5z m95 0 c-10 -2 -26 -2 -35 0 -10 3 -2 5 17 5 19 0 27 -2 18 -5z m80 0 c-10
-2 -26 -2 -35 0 -10 3 -2 5 17 5 19 0 27 -2 18 -5z m125 0 c-18 -2 -48 -2 -65
0 -18 2 -4 4 32 4 36 0 50 -2 33 -4z m180 0 c-13 -2 -33 -2 -45 0 -13 2 -3 4
22 4 25 0 35 -2 23 -4z m85 0 c-10 -2 -26 -2 -35 0 -10 3 -2 5 17 5 19 0 27
-2 18 -5z m90 0 c-10 -2 -26 -2 -35 0 -10 3 -2 5 17 5 19 0 27 -2 18 -5z m130
0 c-21 -2 -55 -2 -75 0 -21 2 -4 4 37 4 41 0 58 -2 38 -4z m125 0 c-13 -2 -35
-2 -50 0 -16 2 -5 4 22 4 28 0 40 -2 28 -4z"/>
<path d="M7163 6435 c-152 -41 -247 -142 -290 -308 -21 -82 -13 -238 16 -322
44 -125 132 -216 248 -256 108 -37 287 -24 372 29 48 29 113 97 136 143 l23
45 -81 27 c-76 25 -83 26 -92 10 -52 -87 -130 -129 -224 -120 -149 13 -241
148 -228 334 10 134 61 221 153 259 52 22 142 18 194 -8 40 -20 55 -36 95
-102 9 -15 17 -14 88 6 48 13 77 26 77 35 0 51 -74 147 -147 189 -89 53 -230
68 -340 39z"/>
<path d="M8738 6441 c-70 -15 -165 -70 -214 -124 -179 -198 -159 -536 42 -699
120 -96 305 -119 471 -56 77 28 174 122 213 203 117 244 10 566 -216 654 -64
25 -226 37 -296 22z m231 -174 c197 -97 196 -455 -3 -560 -57 -30 -174 -31
-231 0 -90 47 -142 134 -152 251 -20 244 184 407 386 309z"/>
<path d="M11800 6440 c-112 -24 -227 -117 -276 -224 -69 -152 -69 -311 0 -461
51 -108 140 -183 258 -215 77 -21 231 -10 298 22 71 32 138 93 170 152 29 55
29 56 -70 86 -60 18 -66 19 -75 3 -67 -110 -169 -147 -288 -103 -98 37 -156
127 -165 257 -12 190 101 337 257 335 31 0 68 -5 82 -10 30 -12 99 -79 99 -96
1 -33 16 -35 95 -12 43 13 81 28 83 34 6 20 -46 108 -86 144 -68 62 -144 91
-247 94 -49 2 -110 -1 -135 -6z m381 -107 c13 -16 12 -17 -3 -4 -10 7 -18 15
-18 17 0 8 8 3 21 -13z"/>
<path d="M12690 6435 c-187 -53 -310 -231 -310 -450 1 -249 145 -426 370 -454
235 -30 429 97 491 320 19 71 15 233 -9 306 -41 127 -124 219 -239 264 -75 29
-224 36 -303 14z m67 -11 c-3 -3 -12 -4 -19 -1 -8 3 -5 6 6 6 11 1 17 -2 13
-5z m173 -154 c52 -26 90 -68 119 -130 23 -48 26 -68 26 -155 0 -85 -4 -107
-24 -149 -46 -92 -115 -144 -205 -153 -104 -11 -195 39 -250 137 -26 47 -31
66 -34 147 -5 103 8 155 56 226 63 94 208 130 312 77z"/>
<path d="M7792 5990 l2 -450 278 0 278 0 0 75 0 75 -190 0 -190 0 0 375 0 375
-90 0 -89 0 1 -450z m545 -377 c-3 -10 -5 -2 -5 17 0 19 2 27 5 18 2 -10 2
-26 0 -35z"/>
<path d="M9430 6123 c0 -358 5 -395 68 -478 73 -95 199 -136 355 -115 126 18
193 61 248 162 l34 63 3 343 3 342 -85 0 -86 0 0 -305 c0 -321 -3 -348 -48
-399 -26 -28 -92 -56 -137 -56 -45 0 -111 28 -137 56 -45 51 -48 78 -48 399
l0 305 -85 0 -85 0 0 -317z m697 85 c-3 -8 -6 -5 -6 6 -1 11 2 17 5 13 3 -3 4
-12 1 -19z m-130 -280 c-3 -8 -6 -5 -6 6 -1 11 2 17 5 13 3 -3 4 -12 1 -19z
m-540 -140 c-3 -7 -5 -2 -5 12 0 14 2 19 5 13 2 -7 2 -19 0 -25z"/>
<path d="M10328 5990 l2 -450 179 0 c98 0 201 4 230 10 78 15 174 66 221 116
189 205 140 607 -89 723 -81 42 -144 51 -351 51 l-195 0 3 -450z m433 269
c153 -66 189 -347 62 -486 -47 -52 -113 -76 -225 -81 l-98 -5 0 297 0 296 106
0 c86 0 115 -4 155 -21z"/>
<path d="M13390 5989 l0 -451 208 4 c230 5 263 11 360 75 112 75 172 204 172
372 0 193 -61 318 -194 396 -76 44 -144 55 -353 55 l-193 0 0 -451z m417 275
c55 -20 116 -89 134 -151 19 -65 17 -218 -3 -264 -23 -53 -73 -105 -125 -130
-36 -17 -70 -23 -150 -27 l-103 -5 0 295 c0 162 2 297 4 299 11 10 205 -3 243
-17z m310 -281 c-2 -16 -4 -5 -4 22 0 28 2 40 4 28 2 -13 2 -35 0 -50z"/>
<path d="M14280 5990 l0 -450 280 0 280 0 0 75 0 75 -195 0 -195 0 0 115 0
115 174 0 174 0 4 70 3 70 -176 0 c-97 0 -178 2 -180 4 -2 2 -3 52 -1 110 l3
106 195 0 194 0 0 80 0 80 -280 0 -280 0 0 -450z"/>
<path d="M7240 5083 c-99 -16 -207 -77 -265 -148 -42 -51 -89 -151 -104 -223
-15 -74 -13 -224 4 -307 57 -268 294 -418 576 -365 116 22 232 107 283 208 14
28 26 55 26 60 0 4 -37 19 -82 32 -46 13 -88 25 -94 27 -6 2 -14 -6 -17 -19
-10 -36 -65 -97 -109 -119 -93 -48 -208 -31 -291 41 -141 124 -147 442 -11
572 52 49 102 69 177 69 103 1 179 -47 219 -138 21 -49 16 -48 141 -12 l67 20
-16 37 c-59 143 -169 234 -314 262 -52 10 -141 11 -190 3z m37 -19 c-3 -3 -12
-4 -19 -1 -8 3 -5 6 6 6 11 1 17 -2 13 -5z"/>
<path d="M11775 5083 c-65 -9 -158 -47 -213 -87 -212 -157 -266 -539 -108
-765 103 -147 242 -210 441 -198 263 15 444 208 461 492 23 360 -232 604 -581
558z m227 -206 c110 -64 167 -195 156 -360 -14 -221 -190 -355 -391 -298 -63
18 -138 86 -173 157 -56 115 -42 308 31 409 63 90 139 127 251 122 66 -3 89
-8 126 -30z"/>
<path d="M13661 5080 c-102 -22 -184 -81 -224 -163 -22 -46 -27 -69 -27 -133
0 -170 70 -231 359 -315 144 -42 181 -71 181 -144 0 -42 -4 -52 -35 -81 -106
-99 -300 -54 -345 80 -6 20 -18 36 -25 36 -8 0 -50 -11 -94 -25 l-81 -26 17
-42 c38 -96 100 -162 193 -206 50 -23 67 -25 180 -26 122 0 127 1 192 33 126
62 186 165 175 298 -6 75 -38 138 -94 182 -46 36 -82 52 -204 87 -146 42 -205
71 -223 110 -20 42 -20 59 0 101 25 52 69 74 148 74 95 0 147 -32 180 -112
l16 -36 52 15 c29 8 67 18 83 22 26 6 30 11 27 36 -9 82 -101 189 -190 220
-56 20 -199 28 -261 15z m119 -24 c0 -3 -4 -8 -10 -11 -5 -3 -10 -1 -10 4 0 6
5 11 10 11 6 0 10 -2 10 -4z"/>
<path d="M7930 4561 l0 -510 95 -3 95 -3 0 188 0 187 69 0 69 0 25 -42 c13
-24 57 -107 97 -185 l73 -143 114 0 113 0 -19 38 c-10 21 -60 108 -110 195
-50 86 -91 161 -91 165 0 4 16 14 35 20 19 7 54 32 78 56 55 53 79 120 80 220
1 135 -59 238 -171 293 l-57 28 -247 3 -248 3 0 -510z m455 322 c63 -30 93
-131 61 -206 -31 -73 -87 -97 -227 -97 l-99 0 0 160 0 160 115 0 c87 0 123 -4
150 -17z"/>
<path d="M8860 4560 l0 -510 325 0 325 0 0 80 0 80 -230 0 -230 0 0 135 0 136
203 -1 202 -2 3 87 3 87 -203 -3 -203 -4 -3 128 -3 127 231 0 230 0 0 85 0 85
-325 0 -325 0 0 -510z m533 -367 c-57 -2 -149 -2 -205 0 -57 1 -11 3 102 3
113 0 159 -2 103 -3z m-385 -130 c-10 -2 -26 -2 -35 0 -10 3 -2 5 17 5 19 0
27 -2 18 -5z m90 0 c-10 -2 -28 -2 -40 0 -13 2 -5 4 17 4 22 1 32 -1 23 -4z
m240 0 c-10 -2 -28 -2 -40 0 -13 2 -5 4 17 4 22 1 32 -1 23 -4z m55 0 c-7 -2
-19 -2 -25 0 -7 3 -2 5 12 5 14 0 19 -2 13 -5z"/>
<path d="M9972 5013 c-12 -32 -53 -150 -93 -263 -117 -337 -210 -602 -229
-652 l-18 -48 103 0 103 0 26 73 c14 39 32 90 40 112 l13 40 186 1 187 1 37
-113 36 -114 108 0 107 0 -39 113 c-22 61 -46 128 -54 147 -8 19 -66 184 -129
365 -63 182 -120 345 -126 363 l-12 32 -113 0 -113 0 -20 -57z m139 -157 c0
-3 29 -92 65 -198 35 -106 64 -199 64 -208 0 -13 -20 -15 -135 -16 -86 0 -135
3 -135 10 0 15 134 425 138 421 2 -2 4 -6 3 -9z m-128 -563 c-7 -2 -21 -2 -30
0 -10 3 -4 5 12 5 17 0 24 -2 18 -5z m454 -229 c-3 -3 -12 -4 -19 -1 -8 3 -5
6 6 6 11 1 17 -2 13 -5z"/>
<path d="M10530 4985 l0 -85 145 0 145 0 0 -425 0 -425 98 0 97 0 -3 425 -2
425 145 0 145 0 0 85 0 85 -385 0 -385 0 0 -85z m88 68 c-10 -2 -26 -2 -35 0
-10 3 -2 5 17 5 19 0 27 -2 18 -5z m515 0 c-18 -2 -48 -2 -65 0 -18 2 -4 4 32
4 36 0 50 -2 33 -4z m-576 -85 c-3 -7 -5 -2 -5 12 0 14 2 19 5 13 2 -7 2 -19
0 -25z"/>
<path d="M12540 4560 l0 -510 90 0 90 0 0 185 0 186 71 -3 71 -3 49 -95 c28
-52 70 -134 95 -182 l46 -88 109 0 c60 0 109 2 109 4 0 5 -209 368 -220 381
-7 8 6 19 41 36 104 48 159 146 159 279 0 124 -45 217 -129 268 -73 45 -120
52 -360 52 l-221 0 0 -510z m158 493 c-10 -2 -28 -2 -40 0 -13 2 -5 4 17 4 22
1 32 -1 23 -4z m289 -168 c47 -20 77 -84 70 -151 -11 -109 -69 -147 -229 -152
l-108 -4 0 159 c0 88 3 162 6 165 10 11 229 -4 261 -17z m180 -821 c-3 -3 -12
-4 -19 -1 -8 3 -5 6 6 6 11 1 17 -2 13 -5z"/>
</g>
</svg>
